<?xml version="1.0" encoding="UTF-8"?>
<svg width="24px" height="24px" viewBox="0 0 24 24" version="1.1" xmlns="http://www.w3.org/2000/svg">
    <g stroke="none" stroke-width="1" fill="none" fill-rule="evenodd">
        <path d="M12,2 C6.477,2 2,6.477 2,12 C2,16.42 4.865,20.166 8.839,21.489 C9.339,21.581 9.521,21.277 9.521,21.017 C9.521,20.777 9.512,20.144 9.508,19.214 C6.726,19.908 6.139,17.784 6.139,17.784 C5.685,16.567 5.029,16.298 5.029,16.298 C4.121,15.68 5.097,15.692 5.097,15.692 C6.115,15.769 6.629,16.73 6.629,16.73 C7.521,18.317 8.97,17.896 9.54,17.654 C9.631,16.997 9.889,16.549 10.175,16.304 C7.954,16.064 5.62,15.272 5.62,11.67 C5.62,10.36 6.01,9.29 6.649,8.451 C6.546,8.147 6.203,6.879 6.747,5.274 C6.747,5.274 7.586,5.022 9.497,6.336 C10.3,6.119 11.15,6.01 12,6.01 C12.85,6.01 13.7,6.119 14.503,6.336 C16.413,5.022 17.251,5.274 17.251,5.274 C17.796,6.879 17.453,8.147 17.351,8.451 C17.99,9.29 18.38,10.36 18.38,11.67 C18.38,15.286 16.041,16.062 13.813,16.297 C14.172,16.603 14.491,17.263 14.491,18.317 C14.491,19.791 14.479,21.012 14.479,21.017 C14.479,21.277 14.659,21.581 15.159,21.489 C19.137,20.164 22,16.416 22,12 C22,6.477 17.523,2 12,2" fill="#000000" fill-rule="nonzero"></path>
    </g>
</svg> 